<?xml version="1.0" encoding="iso-8859-1"?>
<!-- Generator: Adobe Illustrator 19.0.0, SVG Export Plug-In . SVG Version: 6.00 Build 0)  -->
<svg version="1.1" id="Capa_1" xmlns="http://www.w3.org/2000/svg" xmlns:xlink="http://www.w3.org/1999/xlink" x="0px" y="0px"
	 viewBox="0 0 468.293 468.293" style="enable-background:new 0 0 468.293 468.293;" xml:space="preserve">
<path style="fill:#F6C358;" d="M468.293,234.146c0,34.903-7.618,67.934-21.292,97.655c-9.303,20.293-21.417,38.962-35.777,55.57
	c-25.35,29.221-57.819,52.137-94.658,65.998c-20.417,7.68-42.146,12.613-64.812,14.236c-5.807,0.437-11.676,0.687-17.607,0.687
	c-34.404,0-67.06-7.43-96.406-20.667c-20.543-9.303-39.462-21.479-56.258-35.902c-29.534-25.475-52.699-58.131-66.623-95.282
	c-7.742-20.667-12.675-42.708-14.236-65.623C0.187,245.323,0,239.766,0,234.146c0-34.966,7.68-68.121,21.417-97.904
	c9.428-20.605,21.791-39.524,36.527-56.32c25.725-29.346,58.63-52.199,95.969-65.811C174.517,6.556,196.495,1.873,219.348,0.5
	c4.87-0.375,9.803-0.5,14.798-0.5c35.465,0,69.058,7.867,99.153,21.979c20.293,9.49,38.962,21.791,55.571,36.402
	c29.097,25.663,51.762,58.318,65.249,95.407c7.493,20.418,12.176,42.084,13.612,64.687
	C468.105,223.657,468.293,228.901,468.293,234.146z"/>
<circle style="fill:#FCD462;" cx="234.121" cy="234.146" r="155.848"/>
<g>
	<path style="fill:#2D93BA;" d="M242.263,221.659c-0.437,3.684-0.812,6.681-1.124,8.742c-0.25,1.873-0.437,3.122-0.5,3.559
		c-0.063,0.125-0.063,0.188-0.063,0.188h-8.554c0-1.124-0.063-2.248-0.125-3.372c0-0.75,0-1.436-0.063-2.123
		c-0.062-2.685-0.187-5.432-0.375-8.055c-5.869-102.026-50.201-172.332-77.549-206.486C174.517,6.556,196.495,1.873,219.348,0.5
		C251.879,97.218,245.885,189.003,242.263,221.659z"/>
	<path style="fill:#2D93BA;" d="M316.566,453.37c-20.417,7.68-42.146,12.613-64.812,14.236
		c-32.406-96.718-26.412-188.441-22.79-220.972c0.437-3.684,0.812-6.619,1.124-8.679c0.25-1.811,0.437-2.997,0.5-3.497
		c0.063-0.187,0.063-0.312,0.063-0.312h8.554c0,1.186,0.062,2.31,0.125,3.434c0,0.749,0,1.436,0.063,2.123
		c0.063,2.685,0.188,5.432,0.375,8.055C245.572,348.972,289.217,418.903,316.566,453.37z"/>
	<path style="fill:#2D93BA;" d="M239.141,230.65l-0.999,0.999l-2.497,2.498h-0.063v0.063l-2.56,2.497
		c-0.811-0.749-1.623-1.561-2.435-2.248c-0.562-0.562-1.062-1.061-1.623-1.498c-1.936-1.873-3.934-3.684-5.869-5.432
		c-76.8-68.433-158.408-86.603-201.678-91.286c9.428-20.605,21.791-39.524,36.527-56.32
		c91.91,45.456,152.913,114.95,173.518,140.675c2.311,2.934,4.121,5.307,5.433,6.993c1.124,1.498,1.873,2.497,2.123,2.872
		C239.079,230.587,239.141,230.65,239.141,230.65z"/>
	<path style="fill:#2D93BA;" d="M447.001,331.801c-9.303,20.293-21.417,38.962-35.777,55.57
		c-90.787-45.393-151.04-114.076-171.458-139.614c-2.31-2.934-4.121-5.307-5.432-6.993c-1.124-1.498-1.873-2.498-2.123-2.872
		c-0.063-0.125-0.125-0.187-0.125-0.187l3.497-3.497h0.063v-0.063l2.497-2.498c0.812,0.812,1.686,1.561,2.498,2.31
		c0.5,0.562,1.061,1.062,1.561,1.499c1.936,1.811,3.934,3.621,5.869,5.37C323.309,307.824,403.106,326.618,447.001,331.801z"/>
	<path style="fill:#2D93BA;" d="M235.582,229.214v8.554c-1.124,0-2.248,0.062-3.372,0.125c-0.75,0-1.436,0-2.123,0.063
		c-2.685,0.063-5.432,0.188-8.055,0.375c-102.775,5.932-173.268,50.763-207.173,78.111c-7.742-20.667-12.675-42.708-14.236-65.623
		c97.28-32.968,189.815-26.911,222.47-23.29c3.746,0.437,6.681,0.812,8.741,1.124c1.873,0.25,3.122,0.437,3.559,0.5
		C235.52,229.214,235.582,229.214,235.582,229.214z"/>
	<path style="fill:#2D93BA;" d="M467.731,218.474c-96.218,31.906-187.317,25.975-219.66,22.353
		c-3.684-0.437-6.619-0.812-8.679-1.124c-1.873-0.25-3.059-0.437-3.559-0.5c-0.187-0.063-0.25-0.063-0.25-0.063v-8.554
		c1.186,0,2.31-0.063,3.434-0.125c0.749,0,1.436,0,2.123-0.062c2.685-0.063,5.432-0.188,8.055-0.375
		c100.465-5.807,170.209-48.889,204.925-76.238C461.612,174.205,466.295,195.871,467.731,218.474z"/>
	<path style="fill:#2D93BA;" d="M238.142,236.706c-0.812,0.812-1.561,1.686-2.31,2.498c-0.562,0.5-0.999,1.061-1.498,1.561
		c-1.811,1.936-3.622,3.934-5.37,5.869c-68.059,76.425-86.416,157.534-91.223,200.991c-20.543-9.303-39.462-21.479-56.258-35.902
		c45.393-91.848,114.825-152.788,140.55-173.393c2.872-2.31,5.245-4.121,6.931-5.37c1.561-1.186,2.56-1.936,2.934-2.185
		c0.125-0.063,0.188-0.125,0.188-0.125l0.936,0.936v0.063l2.498,2.498h0.063v0.063h0.063L238.142,236.706z"/>
	<path style="fill:#2D93BA;" d="M388.87,58.38c-45.393,90.849-114.076,151.228-139.676,171.645
		c-2.934,2.311-5.307,4.121-6.993,5.433c-1.498,1.124-2.498,1.873-2.872,2.123c-0.125,0.063-0.187,0.125-0.187,0.125l-3.497-3.497
		h-0.063v-0.063h-0.063l-2.498-2.498v-0.063c0.812-0.811,1.623-1.623,2.373-2.435c0.5-0.5,0.999-1.062,1.499-1.561
		c1.811-1.998,3.621-3.996,5.37-5.932c67.372-75.614,86.041-155.91,91.036-199.68C353.592,31.469,372.261,43.77,388.87,58.38z"/>
	<circle style="fill:#2D93BA;" cx="234.121" cy="234.146" r="31.22"/>
</g>
<g>
</g>
<g>
</g>
<g>
</g>
<g>
</g>
<g>
</g>
<g>
</g>
<g>
</g>
<g>
</g>
<g>
</g>
<g>
</g>
<g>
</g>
<g>
</g>
<g>
</g>
<g>
</g>
<g>
</g>
</svg>
